<mxfile host="app.diagrams.net" modified="2023-09-04T13:24:48.102Z" agent="Mozilla/5.0 (Windows NT 10.0; Win64; x64) AppleWebKit/537.36 (KHTML, like Gecko) Chrome/116.0.0.0 Safari/537.36" etag="RdJOJRuM7qQ8z3STewuS" version="21.3.8" type="github">
  <diagram name="Page-1" id="jQlMtctek1_0lAmxLZyV">
    <mxGraphModel dx="792" dy="1093" grid="1" gridSize="10" guides="1" tooltips="1" connect="1" arrows="1" fold="1" page="1" pageScale="1" pageWidth="850" pageHeight="1100" math="0" shadow="0">
      <root>
        <mxCell id="0" />
        <mxCell id="1" parent="0" />
        <mxCell id="8FlY3sB7r1qffFn0Zhiw-1" value="Argo_VPC 10.1.0.0/16" style="points=[[0,0],[0.25,0],[0.5,0],[0.75,0],[1,0],[1,0.25],[1,0.5],[1,0.75],[1,1],[0.75,1],[0.5,1],[0.25,1],[0,1],[0,0.75],[0,0.5],[0,0.25]];outlineConnect=0;gradientColor=none;html=1;whiteSpace=wrap;fontSize=12;fontStyle=0;container=1;pointerEvents=0;collapsible=0;recursiveResize=0;shape=mxgraph.aws4.group;grIcon=mxgraph.aws4.group_vpc;strokeColor=#248814;fillColor=none;verticalAlign=top;align=left;spacingLeft=30;fontColor=#AAB7B8;dashed=0;" vertex="1" parent="1">
          <mxGeometry x="140" y="190" width="588" height="530" as="geometry" />
        </mxCell>
        <mxCell id="8FlY3sB7r1qffFn0Zhiw-12" style="edgeStyle=orthogonalEdgeStyle;rounded=0;orthogonalLoop=1;jettySize=auto;html=1;" edge="1" parent="8FlY3sB7r1qffFn0Zhiw-1" source="8FlY3sB7r1qffFn0Zhiw-2" target="8FlY3sB7r1qffFn0Zhiw-6">
          <mxGeometry relative="1" as="geometry" />
        </mxCell>
        <mxCell id="8FlY3sB7r1qffFn0Zhiw-2" value="argo_subnet 10.1.1.0/24" style="points=[[0,0],[0.25,0],[0.5,0],[0.75,0],[1,0],[1,0.25],[1,0.5],[1,0.75],[1,1],[0.75,1],[0.5,1],[0.25,1],[0,1],[0,0.75],[0,0.5],[0,0.25]];outlineConnect=0;gradientColor=none;html=1;whiteSpace=wrap;fontSize=12;fontStyle=0;container=1;pointerEvents=0;collapsible=0;recursiveResize=0;shape=mxgraph.aws4.group;grIcon=mxgraph.aws4.group_security_group;grStroke=0;strokeColor=#248814;fillColor=#E9F3E6;verticalAlign=top;align=left;spacingLeft=30;fontColor=#248814;dashed=0;" vertex="1" parent="8FlY3sB7r1qffFn0Zhiw-1">
          <mxGeometry x="20" y="40" width="220" height="210" as="geometry" />
        </mxCell>
        <mxCell id="8FlY3sB7r1qffFn0Zhiw-4" value="" style="sketch=0;outlineConnect=0;fontColor=#232F3E;gradientColor=none;fillColor=#4D27AA;strokeColor=none;dashed=0;verticalLabelPosition=bottom;verticalAlign=top;align=center;html=1;fontSize=12;fontStyle=0;aspect=fixed;pointerEvents=1;shape=mxgraph.aws4.internet_gateway;" vertex="1" parent="8FlY3sB7r1qffFn0Zhiw-1">
          <mxGeometry x="550" y="200" width="78" height="78" as="geometry" />
        </mxCell>
        <mxCell id="8FlY3sB7r1qffFn0Zhiw-11" style="edgeStyle=orthogonalEdgeStyle;rounded=0;orthogonalLoop=1;jettySize=auto;html=1;" edge="1" parent="8FlY3sB7r1qffFn0Zhiw-1" source="8FlY3sB7r1qffFn0Zhiw-6" target="8FlY3sB7r1qffFn0Zhiw-4">
          <mxGeometry relative="1" as="geometry" />
        </mxCell>
        <mxCell id="8FlY3sB7r1qffFn0Zhiw-6" value="" style="sketch=0;outlineConnect=0;fontColor=#232F3E;gradientColor=none;fillColor=#4D27AA;strokeColor=none;dashed=0;verticalLabelPosition=bottom;verticalAlign=top;align=center;html=1;fontSize=12;fontStyle=0;aspect=fixed;pointerEvents=1;shape=mxgraph.aws4.route_table;" vertex="1" parent="8FlY3sB7r1qffFn0Zhiw-1">
          <mxGeometry x="360" y="107" width="105.71" height="103" as="geometry" />
        </mxCell>
        <mxCell id="8FlY3sB7r1qffFn0Zhiw-7" value="argo_pub_route" style="text;html=1;align=center;verticalAlign=middle;resizable=0;points=[];autosize=1;strokeColor=none;fillColor=none;" vertex="1" parent="8FlY3sB7r1qffFn0Zhiw-1">
          <mxGeometry x="360" y="210" width="110" height="30" as="geometry" />
        </mxCell>
        <mxCell id="8FlY3sB7r1qffFn0Zhiw-5" value="Internet&lt;br&gt;Gateway" style="rounded=0;whiteSpace=wrap;html=1;" vertex="1" parent="1">
          <mxGeometry x="690" y="470" width="90" height="40" as="geometry" />
        </mxCell>
      </root>
    </mxGraphModel>
  </diagram>
</mxfile>
